Coordinates
version=1
nRows=14
nColumns=24
inDegrees=yes

Units are S.I. units (second, meters, Newtons, ...)
Angles are in degrees.

endheader
time	pelvis_tilt	pelvis_list	pelvis_rotation	pelvis_tx	pelvis_ty	pelvis_tz	hip_flexion_r	hip_adduction_r	hip_rotation_r	knee_angle_r	ankle_angle_r	subtalar_angle_r	mtp_angle_r	hip_flexion_l	hip_adduction_l	hip_rotation_l	knee_angle_l	ankle_angle_l	subtalar_angle_l	mtp_angle_l	lumbar_extension	lumbar_bending	lumbar_rotation
      0.70500000	     -5.69355062	      2.05977302	      3.25054477	     -0.42132449	      1.05898543	      0.27427930	     17.73392868	      1.03888314	     -2.25359430	    -24.40132789	     10.10061894	     -7.15117619	      7.67894651	     24.79032269	     -2.34001223	     -6.22558716	    -70.60851346	      7.44282531	      5.20367563	      5.20009027	    -12.76325108	      0.62629598	     -0.74853460
      0.70916667	     -5.63303858	      2.17043178	      3.14105433	     -0.41621607	      1.06012401	      0.27455010	     17.17893764	      0.97013474	     -2.17343615	    -24.00948719	     10.15896445	     -7.04727582	      7.66328625	     25.15797206	     -2.23100214	     -6.39148808	    -69.92484462	      7.70400564	      5.50930939	      5.19167494	    -12.89907690	      0.46947670	     -0.51874634
      0.71333333	     -5.57562390	      2.25953497	      3.03165027	     -0.41106649	      1.06121208	      0.27482311	     16.61803303	      0.92196458	     -2.11399128	    -23.59654210	     10.20648190	     -6.95763270	      7.64320362	     25.51666303	     -2.15263921	     -6.56817488	    -69.20071533	      7.94100629	      5.75326075	      5.17809291	    -13.00391429	      0.30037307	     -0.25594989
      0.71750000	     -5.54517960	      2.37570681	      2.90322596	     -0.40593758	      1.06222628	      0.27510152	     16.10063411	      0.84333834	     -2.03276623	    -23.21027485	     10.21749104	     -6.85377551	      7.63243449	     25.87977687	     -2.04451981	     -6.76589370	    -68.40681122	      8.16344955	      5.97544322	      5.17255286	    -13.08293876	      0.12944778	     -0.10851400
      0.72166667	     -5.48918756	      2.45968787	      2.77706683	     -0.40079806	      1.06323475	      0.27537001	     15.54468888	      0.79840736	     -1.96457762	    -22.79513844	     10.26707433	     -6.75644440	      7.61798383	     26.20522654	     -1.97522938	     -6.95754571	    -67.57519043	      8.38015443	      6.19413686	      5.16183784	    -13.18602423	     -0.03538505	      0.16156587
      0.72583333	     -5.47471227	      2.56164751	      2.63423854	     -0.39566192	      1.06412398	      0.27564882	     15.04796025	      0.73197037	     -1.87930854	    -22.40898755	     10.26875105	     -6.64834340	      7.61078553	     26.55313093	     -1.88689958	     -7.16740397	    -66.68341390	      8.57671948	      6.37800871	      5.15786022	    -13.23868795	     -0.19154629	      0.30336094
      0.73000000	     -5.43375995	      2.65372453	      2.48901192	     -0.39052906	      1.06502660	      0.27592128	     14.51757032	      0.67542268	     -1.79557126	    -22.00699396	     10.29084459	     -6.54335302	      7.60505233	     26.85481000	     -1.81070615	     -7.37519840	    -65.73956967	      8.76367226	      6.55224671	      5.15374400	    -13.32428145	     -0.35372076	      0.49637640
      0.73416667	     -5.37509940	      2.73753145	      2.34668248	     -0.38538915	      1.06590971	      0.27617683	     13.96591192	      0.62439908	     -1.72522244	    -21.60190050	     10.35550084	     -6.44619799	      7.59875510	     27.12137802	     -1.74035191	     -7.57542401	    -64.74809294	      8.92812106	      6.69156222	      5.14505222	    -13.42286391	     -0.51228213	      0.77899032
      0.73833333	     -5.36547361	      2.81547123	      2.19916781	     -0.38026372	      1.06664348	      0.27641498	     13.47577184	      0.57590062	     -1.63977937	    -21.20930757	     10.38332308	     -6.33173020	      7.59257045	     27.42731208	     -1.67007956	     -7.76888049	    -63.71318068	      9.08142890	      6.80624901	      5.13505033	    -13.47440926	     -0.65878077	      1.01971592
      0.74250000	     -5.35927944	      2.90100591	      2.04074116	     -0.37512789	      1.06734160	      0.27666250	     12.99548073	      0.51704837	     -1.55526598	    -20.82689509	     10.38418536	     -6.21935593	      7.59000127	     27.71170333	     -1.59570385	     -7.97658144	    -62.61676433	      9.20765177	      6.89631978	      5.12992338	    -13.50547690	     -0.79420389	      1.15294992
      0.74666667	     -5.32630510	      2.96430380	      1.89446821	     -0.37000324	      1.06801527	      0.27689104	     12.47946292	      0.48022864	     -1.48279028	    -20.43030799	     10.44838933	     -6.10875557	      7.58803415	     27.95728413	     -1.53699511	     -8.15321530	    -61.48489115	      9.32500771	      6.96344849	      5.12063400	    -13.57729926	     -0.93398894	      1.42671082
      0.75083333	     -5.30457792	      3.03280780	      1.74098764	     -0.36487463	      1.06863755	      0.27711436	     11.98109613	      0.43477057	     -1.40537777	    -20.04270352	     10.48035435	     -6.00317460	      7.58675013	     28.19122633	     -1.47202657	     -8.33650578	    -60.29497715	      9.41184670	      7.00392513	      5.11278886	    -13.62751365	     -1.06159227	      1.62198915
      0.75500000	     -5.31020302	      3.09595770	      1.58575232	     -0.35975265	      1.06915375	      0.27731776	     11.52099983	      0.39054714	     -1.32669438	    -19.67087741	     10.48766114	     -5.89086229	      7.58678303	     28.43674466	     -1.40594199	     -8.50451447	    -59.05646614	      9.47829234	      7.03042620	      5.10772905	    -13.64540487	     -1.16993171	      1.76123476
      0.75916667	     -5.31086676	      3.15032541	      1.43735491	     -0.35464521	      1.06961581	      0.27750914	     11.05430294	      0.35377838	     -1.25271558	    -19.29505689	     10.52666454	     -5.78135752	      7.58816698	     28.66241538	     -1.34293833	     -8.65599995	    -57.77560146	      9.51952478	      7.02329238	      5.10296813	    -13.67475426	     -1.27939230	      1.94266407
